<svg id="Слой_1" data-name="Слой 1" xmlns="http://www.w3.org/2000/svg" viewBox="0 0 14.14 14.14"><defs><style>.cls-1{fill:#343434;}</style></defs><path class="cls-1" d="M356.12,493.34h-1.74c0-.19,0-.37,0-.56a.59.59,0,0,0-1.17-.11c0,.22,0,.43,0,.66h-5.89v-.46a1.45,1.45,0,0,0,0-.3.59.59,0,0,0-1.14.11c0,.21,0,.42,0,.66H346c-.56,0-1.13,0-1.69,0a1.13,1.13,0,0,0-1.05.89l0,.08v11a3.7,3.7,0,0,0,.17.4,1.16,1.16,0,0,0,.72.54l.08,0h12.2l.07,0a1.18,1.18,0,0,0,.9-1.15V494.55A1.17,1.17,0,0,0,356.12,493.34Zm-11.75,1.19h1.75V495a1.55,1.55,0,0,0,0,.31.58.58,0,0,0,1.14-.11c0-.21,0-.42,0-.65h5.89v.56a.59.59,0,0,0,.63.61.57.57,0,0,0,.54-.49c0-.17,0-.34,0-.51v-.17h1.74v2.33H344.37Zm11.76,10.58H344.38v-7h11.75Z" transform="translate(-343.18 -492.16)"/><path class="cls-1" d="M346.72,500.42a.61.61,0,0,0,.59-.6.6.6,0,0,0-1.19,0A.61.61,0,0,0,346.72,500.42Z" transform="translate(-343.18 -492.16)"/><path class="cls-1" d="M348.48,500.42a.6.6,0,0,0,.59-.59.59.59,0,0,0-1.18,0A.61.61,0,0,0,348.48,500.42Z" transform="translate(-343.18 -492.16)"/><path class="cls-1" d="M350.24,500.42a.6.6,0,0,0,.6-.6.59.59,0,1,0-1.18,0A.6.6,0,0,0,350.24,500.42Z" transform="translate(-343.18 -492.16)"/><path class="cls-1" d="M352,500.42a.61.61,0,0,0,.59-.61.6.6,0,0,0-1.19,0A.61.61,0,0,0,352,500.42Z" transform="translate(-343.18 -492.16)"/><path class="cls-1" d="M353.78,500.42a.6.6,0,0,0,.59-.6.59.59,0,1,0-1.18,0A.61.61,0,0,0,353.78,500.42Z" transform="translate(-343.18 -492.16)"/><path class="cls-1" d="M346.71,501a.58.58,0,0,0-.59.59.6.6,0,1,0,.59-.59Z" transform="translate(-343.18 -492.16)"/><path class="cls-1" d="M348.48,502.18a.6.6,0,0,0,.59-.59.59.59,0,0,0-1.18,0A.6.6,0,0,0,348.48,502.18Z" transform="translate(-343.18 -492.16)"/><path class="cls-1" d="M350.25,501a.58.58,0,0,0-.59.58.59.59,0,0,0,.59.6.6.6,0,0,0,.59-.59A.58.58,0,0,0,350.25,501Z" transform="translate(-343.18 -492.16)"/><path class="cls-1" d="M352,502.18a.6.6,0,0,0,.6-.6.6.6,0,0,0-1.19,0A.6.6,0,0,0,352,502.18Z" transform="translate(-343.18 -492.16)"/><path class="cls-1" d="M353.78,501a.59.59,0,0,0-.59.58.6.6,0,0,0,.59.6.59.59,0,0,0,.59-.6A.58.58,0,0,0,353.78,501Z" transform="translate(-343.18 -492.16)"/><path class="cls-1" d="M346.71,504a.61.61,0,0,0,.6-.6.6.6,0,0,0-1.19,0A.6.6,0,0,0,346.71,504Z" transform="translate(-343.18 -492.16)"/><path class="cls-1" d="M348.49,504a.6.6,0,0,0,.58-.6.59.59,0,0,0-.6-.59.6.6,0,0,0,0,1.19Z" transform="translate(-343.18 -492.16)"/><path class="cls-1" d="M350.24,504a.6.6,0,1,0,0-1.19.6.6,0,0,0,0,1.19Z" transform="translate(-343.18 -492.16)"/><path class="cls-1" d="M352,502.76a.6.6,0,0,0-.6.58.61.61,0,0,0,.59.61.6.6,0,0,0,.6-.6A.59.59,0,0,0,352,502.76Z" transform="translate(-343.18 -492.16)"/></svg>