<svg id="Слой_1" data-name="Слой 1" xmlns="http://www.w3.org/2000/svg" viewBox="0 0 19.82 19.91"><defs><style>.cls-1{fill:#979797;}</style></defs><title>zoom</title><path class="cls-1" d="M391.39,414.46a.68.68,0,0,0-.41,0,.34.34,0,0,0-.21.37q0,1.44,0,2.88c0,.07,0,.14,0,.21l-8.47-8.5,8.48-8.51v.22q0,1.4,0,2.8a.67.67,0,0,0,0,.23.39.39,0,0,0,.76-.19c0-1.32,0-2.64,0-4a.52.52,0,0,0-.32-.57h-4.33a1.58,1.58,0,0,0-.17.13.38.38,0,0,0-.09.44.42.42,0,0,0,.43.25h3l-8.45,8.48-8.45-8.48h3a.42.42,0,0,0,.43-.25.38.38,0,0,0-.09-.44,1.58,1.58,0,0,0-.17-.13h-4.33a.52.52,0,0,0-.32.57c0,1.32,0,2.64,0,4a.39.39,0,0,0,.76.19.67.67,0,0,0,0-.23q0-1.4,0-2.8v-.22L381,409.4l-8.47,8.5c0-.07,0-.14,0-.21q0-1.44,0-2.88a.34.34,0,0,0-.21-.37.68.68,0,0,0-.41,0c-.15.06-.17.22-.17.37,0,.67,0,1.34,0,2s0,1.34,0,2c0,.34.15.48.48.48h4c.35,0,.56-.27.44-.56a.43.43,0,0,0-.45-.25h-3l8.44-8.47,8.44,8.47h-3a.43.43,0,0,0-.45.25c-.12.29.09.56.44.56h4c.34,0,.48-.15.48-.48q0-1,0-2c0-.67,0-1.34,0-2C391.56,414.68,391.54,414.52,391.39,414.46Z" transform="translate(-371.75 -399.42)"/></svg>