<svg id="Слой_1" data-name="Слой 1" xmlns="http://www.w3.org/2000/svg" viewBox="0 0 14.8 14.8"><defs><style>.cls-1{fill:#e41e25;}</style></defs><title>add_cart</title><path class="cls-1" d="M388.84,401.37H375.39a1,1,0,0,0-.62.41,3.11,3.11,0,0,0-.16.34v.32c0,.07,0,.15.08.22a.9.9,0,0,0,.84.56c.31,0,.61,0,.94,0v.23c0,2.67,0,5.34,0,8a1,1,0,0,0,1,1h10a.94.94,0,0,0,.93-.62.92.92,0,0,0-.88-1.23h-9.23v-.93h8.38a1.21,1.21,0,0,0,1.24-1l1.44-6.39a.5.5,0,0,1,0-.08v-.29A.79.79,0,0,0,388.84,401.37Zm-2.61,6.47h-7.9v-4.61h9.17Z" transform="translate(-374.61 -401.37)"/><path class="cls-1" d="M378.78,413.4a1.39,1.39,0,1,0,1.39,1.39A1.39,1.39,0,0,0,378.78,413.4Z" transform="translate(-374.61 -401.37)"/><circle class="cls-1" cx="386.18" cy="414.78" r="1.39" transform="matrix(0, -1, 1, 0, -404.16, 398.58)"/></svg>