<svg id="Слой_1" data-name="Слой 1" xmlns="http://www.w3.org/2000/svg" viewBox="0 0 12.5 13.03"><defs><style>.cls-1{fill:#010101;}</style></defs><title>addfile</title><path class="cls-1" d="M387,407.83l-6.28,6.28a2.65,2.65,0,0,1-3.75-3.76h0l6-6a1.82,1.82,0,0,1,2.5,0,1.77,1.77,0,0,1,0,2.47L380,412.4a.89.89,0,0,1-1.17-.06.88.88,0,0,1,0-1.23h0l5.31-5.31-.7-.7-5.31,5.31h0a1.86,1.86,0,0,0,1.32,3.18,1.89,1.89,0,0,0,1.13-.38h0l.1-.1.09-.08h0l5.49-5.49,0,0,.08-.08h0a2.76,2.76,0,0,0-4-3.83l-6.13,6.12h0a3.65,3.65,0,0,0,5.12,5.19h0l6.41-6.41Z" transform="translate(-375.25 -402.84)"/></svg>