<svg id="Слой_1" data-name="Слой 1" xmlns="http://www.w3.org/2000/svg" viewBox="0 0 31.93 30.4"><defs><style>.cls-1{fill:#e41e25;}</style></defs><title>calendar</title><path class="cls-1" d="M298.81,342.11c0-.52,0-1,0-1.44a1.52,1.52,0,1,1,3,0c0,.47,0,.95,0,1.45H311c0-.54,0-1.07,0-1.6a1.51,1.51,0,0,1,3,0c0,.41,0,.83,0,1.25,0,.12,0,.23,0,.4h3a2.92,2.92,0,0,1,3.11,3.09q0,3.44,0,6.88a.61.61,0,0,0,.33.59,9.11,9.11,0,0,1-3,16.61A8.88,8.88,0,0,1,309,366.7a.83.83,0,0,0-.65-.27H295.74a2.89,2.89,0,0,1-2.94-2.31,3.23,3.23,0,0,1-.06-.67q0-9.19,0-18.38a2.88,2.88,0,0,1,3-3ZM317,348.22H295.8v15.16h11.1a9.19,9.19,0,0,1,10.14-12Zm-1.52,19a6.84,6.84,0,1,0-6.82-6.85A6.84,6.84,0,0,0,315.52,367.18Z" transform="translate(-292.74 -339.08)"/><path class="cls-1" d="M314,355.8h2.26c0,.14,0,.27,0,.39,0,1.09,0,2.18,0,3.28a.48.48,0,0,0,.27.48c.82.48,1.62,1,2.46,1.5l-1.18,1.95-2.66-1.62c-.39-.24-.91-.42-1.12-.78s-.06-.88-.06-1.33q0-1.75,0-3.49C314,356.06,314,355.95,314,355.8Z" transform="translate(-292.74 -339.08)"/></svg>