<svg id="Слой_1" data-name="Слой 1" xmlns="http://www.w3.org/2000/svg" viewBox="0 0 100 88"><defs><style>.cls-1{fill:#ce2027;}.cls-2{fill:#fff;}</style></defs><title>cart_ok</title><path class="cls-1" d="M431.94,400.33a9.49,9.49,0,0,0-.87-.78l-46.83-34.38a3.18,3.18,0,0,0-3.71,0L333.7,399.55a9.49,9.49,0,0,0-.87.78,2.3,2.3,0,0,0-.45,1.34V450a2.7,2.7,0,0,0,2.83,2.52h94.33a2.7,2.7,0,0,0,2.83-2.52V401.67A2.3,2.3,0,0,0,431.94,400.33Z" transform="translate(-332.38 -364.57)"/><path class="cls-2" d="M364.93,402.16v-.75a7.33,7.33,0,0,1,.39-.81,2.36,2.36,0,0,1,1.46-1h31.69a1.87,1.87,0,0,1,1.36,1.36v.68a1.18,1.18,0,0,0-.07.18q-1.7,7.53-3.39,15.07a2.85,2.85,0,0,1-2.92,2.34H373.68v2.18h14.26c2.5,0,5,0,7.5,0a2.18,2.18,0,0,1,2.07,2.89,2.22,2.22,0,0,1-2.19,1.47c-7.87,0-15.74,0-23.61,0a2.37,2.37,0,0,1-2.42-2.41c0-6.29,0-12.58,0-18.87,0-.17,0-.33,0-.53-.76,0-1.48,0-2.21,0a2.13,2.13,0,0,1-2-1.33C365,402.51,365,402.33,364.93,402.16Zm8.75,1.85v10.87H392.3l3-10.87Z" transform="translate(-332.38 -364.57)"/><path class="cls-2" d="M378,431.26a3.27,3.27,0,1,1-3.27-3.27A3.28,3.28,0,0,1,378,431.26Z" transform="translate(-332.38 -364.57)"/><path class="cls-2" d="M395.47,431.27A3.27,3.27,0,1,1,392.2,428,3.28,3.28,0,0,1,395.47,431.27Z" transform="translate(-332.38 -364.57)"/></svg>