<svg id="Слой_1" data-name="Слой 1" xmlns="http://www.w3.org/2000/svg" viewBox="0 0 26.79 26.79"><defs><style>.cls-1{fill:#e41e25;}</style></defs><title>cart</title><path class="cls-1" d="M285,410v-.58a5.63,5.63,0,0,1,.3-.62,1.81,1.81,0,0,1,1.12-.74h24.33a1.43,1.43,0,0,1,1,1v.52a.91.91,0,0,0-.06.14l-2.61,11.57a2.19,2.19,0,0,1-2.25,1.79H291.72v1.67h16.7A1.67,1.67,0,0,1,310,427a1.7,1.7,0,0,1-1.69,1.13c-6,0-12.08,0-18.13,0a1.82,1.82,0,0,1-1.85-1.85c0-4.83,0-9.66,0-14.49,0-.13,0-.26,0-.41-.58,0-1.14,0-1.69,0a1.64,1.64,0,0,1-1.52-1C285.08,410.23,285,410.09,285,410Zm6.72,1.42v8.35H306l2.29-8.35Z" transform="translate(-285 -408.02)"/><path class="cls-1" d="M295,432.3a2.51,2.51,0,1,1-2.51-2.51A2.52,2.52,0,0,1,295,432.3Z" transform="translate(-285 -408.02)"/><circle class="cls-1" cx="305.93" cy="432.3" r="2.51" transform="translate(-412.11 329.17) rotate(-89.86)"/></svg>