<svg id="Слой_1" data-name="Слой 1" xmlns="http://www.w3.org/2000/svg" viewBox="0 0 79.78 104"><defs><style>.cls-1{fill:#e41e25;}</style></defs><title>download_file</title><path class="cls-1" d="M422,377.08a4.48,4.48,0,0,0-1.25-2.8c-5.07-5.2-10.27-10.27-15.35-15.46a4.91,4.91,0,0,0-3.88-1.59q-26.71.08-53.42,0h-5.84v104h79.67c.06-.58.11-.89.11-1.2Q422,418.55,422,377.08Zm-14.35-8.51,2.84,3H407.6Zm9.49,87.8H346.91V362.23h55.7v14.25h14.49Z" transform="translate(-342.22 -357.22)"/><path class="cls-1" d="M394.81,408.84l-10.49,8.69v-25H379.6v25l-10.36-8.72-3,3.69,12.7,10.78-.26.49H367.82v4.59h28.39v-4.69H384.52l13.35-11.21Z" transform="translate(-342.22 -357.22)"/></svg>