<svg id="Слой_1" data-name="Слой 1" xmlns="http://www.w3.org/2000/svg" viewBox="0 0 155.33 144.24"><defs><style>.cls-1{fill:#e5e5e5;}</style></defs><title>empty_cart</title><path class="cls-1" d="M358.51,481.5c-.33-.12-.65-.27-1-.36a9.89,9.89,0,0,1-6.94-11.63c.06-.3.14-.58.26-1.09H337.36v-13H448.6v12.92H435.37c0,2,.31,3.88-.06,5.63a9.36,9.36,0,0,1-6.72,7.14l-1.14.4h-3.39a2.79,2.79,0,0,0-.52-.28c-5.64-1.66-8.44-6.32-7.24-12a3.49,3.49,0,0,0,0-.71H369.54c.11.45.19.74.25,1a9.87,9.87,0,0,1-7.07,11.66,8.83,8.83,0,0,0-.83.33Z" transform="translate(-304.49 -337.26)"/><path class="cls-1" d="M342,376.47c1,6.73,1.86,13.23,2.79,19.71,1.49,10.45,3,20.89,4.46,31.35.16,1.18.58,1.51,1.73,1.51q35.93,0,71.85,0c1.18,0,1.57-.46,1.87-1.48,1.95-6.63,3.95-13.24,6-20.09l12.46,3.71c-.1.46-.17.85-.28,1.22-2.81,9.42-5.65,18.83-8.43,28.26a1.74,1.74,0,0,1-2,1.48q-46.39-.05-92.77,0h-1.53L325,350.28h-20.5v-13h31.86l3.75,26.07h56.07v13.14Z" transform="translate(-304.49 -337.26)"/><path class="cls-1" d="M435.45,360.86l14.95-15,9.1,9.16-14.7,14.67,15,14.86-9.33,9.31L436,379.14l-15,15-9.24-9.35,14.62-14.6-14.94-14.84,9.33-9.34Z" transform="translate(-304.49 -337.26)"/></svg>