<svg xmlns="http://www.w3.org/2000/svg" viewBox="0 0 11.24 10.01"><defs><style>.a{fill:#ee2530;}</style></defs><title>errorinp</title><path class="a" d="M262,460.44a.94.94,0,0,1-.31.55.88.88,0,0,1-.61.22h-9.37a.88.88,0,0,1-.61-.22.94.94,0,0,1-.31-.55,1,1,0,0,1,.1-.63l4.69-8.12a.88.88,0,0,1,.5-.42,1,1,0,0,1,.64,0,.88.88,0,0,1,.5.42l4.69,8.13A1,1,0,0,1,262,460.44Zm-6.24-2.05a.9.9,0,1,0,.63-.26A.87.87,0,0,0,255.8,458.39Zm-.07-.83a.21.21,0,0,0,.07.15.23.23,0,0,0,.17.07h.94a.23.23,0,0,0,.17-.07.21.21,0,0,0,.07-.15l.16-2.66a.25.25,0,0,0-.07-.19.23.23,0,0,0-.17-.07h-1.25a.23.23,0,0,0-.17.07.25.25,0,0,0-.07.19Z" transform="translate(-250.82 -451.2)"/></svg>