<svg id="Слой_1" data-name="Слой 1" xmlns="http://www.w3.org/2000/svg" viewBox="0 0 13.67 13.67"><defs><style>.cls-1{fill:#e41e25;}</style></defs><title>feedback</title><path class="cls-1" d="M291.77,427.67a.68.68,0,0,1-.68-.68V416.05a2.05,2.05,0,0,1,2.05-2.05h9.57a2.05,2.05,0,0,1,2.05,2.05v6.83a2.05,2.05,0,0,1-2.05,2.05h-7.92l-2.53,2.53A.68.68,0,0,1,291.77,427.67Zm1.37-12.3a.68.68,0,0,0-.68.68v9.28l1.57-1.57a.68.68,0,0,1,.48-.2h8.2a.68.68,0,0,0,.68-.68v-6.83a.68.68,0,0,0-.68-.68Z" transform="translate(-291.08 -414)"/></svg>