<svg id="Слой_1" data-name="Слой 1" xmlns="http://www.w3.org/2000/svg" viewBox="0 0 13.04 13.04"><defs><style>.cls-1{fill:#cb2027;}</style></defs><title>file</title><path class="cls-1" d="M375.57,410.18a.41.41,0,0,0-.41.41v.82a.41.41,0,0,0,.41.41h2.85v-1.63ZM388,405.52l-2.49-2.5a.61.61,0,0,0-.43-.18h-.16v3.26h3.26v-.16A.61.61,0,0,0,388,405.52Zm-3.9.79v-3.46H379a.61.61,0,0,0-.61.61v6.72h3.26v-1.66a.41.41,0,0,1,.7-.29l2.44,2.46a.43.43,0,0,1,0,.61l-2.44,2.46a.41.41,0,0,1-.7-.29v-1.66h-3.26v3.46a.61.61,0,0,0,.61.61h8.56a.61.61,0,0,0,.61-.61v-8.35h-3.46A.61.61,0,0,1,384.13,406.31Z" transform="translate(-375.17 -402.84)"/></svg>