<svg id="Слой_1" data-name="Слой 1" xmlns="http://www.w3.org/2000/svg" viewBox="0 0 9.77 13.03"><defs><style>.cls-1{fill:#e41e25;}</style></defs><title>file_download</title><path class="cls-1" d="M383,405.56v-3.46H378a.61.61,0,0,0-.61.61v11.81a.61.61,0,0,0,.61.61h8.55a.61.61,0,0,0,.61-.61v-8.35h-3.46A.61.61,0,0,1,383,405.56Zm1.95,5.38-2.45,2.44a.43.43,0,0,1-.61,0l-2.45-2.44a.41.41,0,0,1,.29-.7h1.66v-2a.41.41,0,0,1,.41-.41h.81a.41.41,0,0,1,.41.41v2h1.66a.41.41,0,0,1,.29.7Zm1.95-6.17-2.49-2.49a.61.61,0,0,0-.43-.18h-.16v3.26h3.26v-.16A.61.61,0,0,0,386.94,404.77Z" transform="translate(-377.34 -402.09)"/></svg>