<svg id="Слой_1" data-name="Слой 1" xmlns="http://www.w3.org/2000/svg" viewBox="0 0 5.19 12.44"><defs><style>.cls-1{fill:#fff;}</style></defs><path class="cls-1" d="M298.12,419.27a2.76,2.76,0,0,0-.81,0,6.51,6.51,0,0,0-1.88.58.25.25,0,0,0-.13.12c-.08.19-.15.38-.24.62l.31-.1a6.15,6.15,0,0,1,.85-.1c.33,0,.47.17.44.5a3.06,3.06,0,0,1-.17.84c-.27.71-.59,1.41-.86,2.12a17.58,17.58,0,0,0-.67,2,1.24,1.24,0,0,0,1,1.6,2.55,2.55,0,0,0,1,0,17.32,17.32,0,0,0,1.72-.57.2.2,0,0,0,.1-.08c.08-.2.16-.4.25-.65a1.06,1.06,0,0,1-.23.08,6.38,6.38,0,0,1-1,.1c-.32,0-.46-.21-.43-.54a2,2,0,0,1,.11-.53c.26-.7.54-1.39.82-2.09a10,10,0,0,0,.8-2.33A1.24,1.24,0,0,0,298.12,419.27Z" transform="translate(-294.91 -414.99)"/><path class="cls-1" d="M300.09,416.33a1.51,1.51,0,0,0-1.25-1.32,1.63,1.63,0,0,0-1.73.86,1.53,1.53,0,1,0,3,.46Z" transform="translate(-294.91 -414.99)"/></svg>