<svg id="Слой_1" data-name="Слой 1" xmlns="http://www.w3.org/2000/svg" viewBox="0 0 17.25 17.25"><defs><style>.cls-1{fill:#ffffff;}</style></defs><title>instagram</title><path class="cls-1" d="M308.94,349.65a4.45,4.45,0,1,0,4.45,4.45A4.46,4.46,0,0,0,308.94,349.65Zm0,7.3a2.85,2.85,0,1,1,2.85-2.85A2.86,2.86,0,0,1,308.94,356.95Z" transform="translate(-300.32 -345.51)"/><circle class="cls-1" cx="13.25" cy="4.03" r="1.01"/><path class="cls-1" d="M316.17,346.93a5,5,0,0,0-3.65-1.43h-7.16a4.76,4.76,0,0,0-5,5v7.13a5,5,0,0,0,1.46,3.72,5.07,5.07,0,0,0,3.62,1.36h7.09a5.13,5.13,0,0,0,3.65-1.36,5,5,0,0,0,1.43-3.69v-7.16A5,5,0,0,0,316.17,346.93ZM316,357.71a3.4,3.4,0,0,1-1,2.54,3.59,3.59,0,0,1-2.54.9h-7.09a3.59,3.59,0,0,1-2.54-.9,3.5,3.5,0,0,1-.94-2.57v-7.13a3.47,3.47,0,0,1,.94-2.54,3.54,3.54,0,0,1,2.54-.9h7.16a3.47,3.47,0,0,1,2.54.94,3.59,3.59,0,0,1,.94,2.5v7.16Z" transform="translate(-300.32 -345.51)"/></svg>