<svg id="Слой_1" data-name="Слой 1" xmlns="http://www.w3.org/2000/svg" viewBox="0 0 17.45 17.45"><defs><style>.cls-1{fill:#2c2c2c;}</style></defs><title>popup_cart</title><path class="cls-1" d="M373.07,402v-.37a3.66,3.66,0,0,1,.19-.41,1.18,1.18,0,0,1,.73-.48h15.85a.93.93,0,0,1,.68.68v.34a.59.59,0,0,0,0,.09l-1.7,7.53a1.42,1.42,0,0,1-1.46,1.17h-9.88v1.09h10.88a1.09,1.09,0,0,1,1,1.45,1.11,1.11,0,0,1-1.1.73H376.45a1.18,1.18,0,0,1-1.21-1.21c0-3.15,0-6.29,0-9.44,0-.08,0-.17,0-.27-.38,0-.74,0-1.1,0a1.07,1.07,0,0,1-1-.66C373.12,402.19,373.1,402.1,373.07,402Zm4.37.93v5.44h9.31l1.49-5.44Z" transform="translate(-373.07 -400.75)"/><path class="cls-1" d="M379.61,416.56a1.64,1.64,0,1,1-1.64-1.63A1.64,1.64,0,0,1,379.61,416.56Z" transform="translate(-373.07 -400.75)"/><circle class="cls-1" cx="386.7" cy="416.57" r="1.64" transform="translate(-403.86 401.51) rotate(-89.86)"/></svg>