<svg id="Слой_1" data-name="Слой 1" xmlns="http://www.w3.org/2000/svg" viewBox="0 0 84.25 84.25"><defs><style>.cls-1{fill:#e41e25;}.cls-2{fill:#181818;}</style></defs><title>preim2</title><path class="cls-1" d="M308.7,396.91a42.13,42.13,0,1,1,42.13-42.12A42.17,42.17,0,0,1,308.7,396.91Zm0-83.25a41.13,41.13,0,1,0,41.13,41.13A41.17,41.17,0,0,0,308.7,313.66Z" transform="translate(-266.57 -312.66)"/><path class="cls-2" d="M300.79,360.31l-3.49-2L295,357a.72.72,0,0,1-.31-1.09l4.11-7.2c.27-.46.59-.53,1.09-.25l5.34,3.08a.88.88,0,0,0,.35.13c-.05-.1-.1-.2-.15-.3L302.35,346c-.34-.58-.26-.86.33-1.2l7.08-4.07c.59-.34.88-.26,1.21.32l3.13,5.42a.57.57,0,0,0,.21.22v-.32q0-3.1,0-6.2c0-.68.18-.87.85-.87h8.18c.63,0,.84.21.84.82q0,10.4,0,20.8a5,5,0,0,1-4.15,5,.28.28,0,0,0-.27.27,4.87,4.87,0,0,1-4.91,4.09H294.1c-.69,0-.88-.19-.88-.88q0-4.07,0-8.15c0-.66.19-.85.84-.85h6.71Zm14.82-19.66V341q0,9.77,0,19.53a6.6,6.6,0,0,0,.05,1,3.6,3.6,0,0,0,7.18-.54q0-10,0-20c0-.1,0-.2,0-.29Zm2.09,27,0,0-.09,0a5.1,5.1,0,0,1-4.77-.37c-3.16-1.86-6.34-3.68-9.51-5.51a1.09,1.09,0,0,0-.52-.14h-8.2v7.3h20.37A3.54,3.54,0,0,0,317.7,367.66Zm-13.93-21.9.21.37,4.24,7.3,5.73,9.91a3.59,3.59,0,0,0,1.5,1.47,9.5,9.5,0,0,0,1,.37l0-.07a5.29,5.29,0,0,1-2.18-4.7c0-3.54,0-7.07,0-10.61a1.21,1.21,0,0,0-.15-.58q-2-3.42-4-6.82c0-.08-.1-.15-.16-.24Zm-7.71,10.33.31.18L307,362.4c2.24,1.29,4.47,2.59,6.72,3.88a3.52,3.52,0,0,0,2.8.33s0-.05,0-.06l-.09,0a4.83,4.83,0,0,1-3.66-2.53q-2.77-4.82-5.57-9.63a1.1,1.1,0,0,0-.38-.38L302,351.17l-2.28-1.32Z" transform="translate(-266.57 -312.66)"/><path class="cls-2" d="M318.71,360.4h1v1.28h-1Z" transform="translate(-266.57 -312.66)"/></svg>