<svg id="Слой_1" data-name="Слой 1" xmlns="http://www.w3.org/2000/svg" viewBox="0 0 84.25 84.25"><defs><style>.cls-1{fill:#181818;}.cls-2{fill:#e41e25;}</style></defs><title>preim1</title><path class="cls-1" d="M295.81,373.14a1.16,1.16,0,0,1-.53-1.13q0-17.83,0-35.66c0-.16,0-.32,0-.48a.79.79,0,0,1,.79-.78h25.15c.74,0,1,.28,1,1q0,18,0,36a1,1,0,0,1-.58,1.06Zm24.81-36.45H297.26c-.35,0-.4.13-.4.43q0,17,0,34c0,.37.11.44.46.44h22.92l.38,0Z" transform="translate(-266.65 -311.99)"/><path class="cls-1" d="M308.61,353.26l-.84,2.31c-.31.86-.86,1-1.54.41a2.86,2.86,0,0,0-2.33-.84c-.87.06-1.19-.44-.9-1.26.41-1.13.82-2.25,1.22-3.38a.6.6,0,0,0,0-.47,5.5,5.5,0,1,1,9.26-5.95,5.23,5.23,0,0,1-.23,6.11.6.6,0,0,0-.1.66c.39,1,.75,2,1.12,3.06.27.75-.07,1.29-.85,1.21a3,3,0,0,0-2.46.9c-.59.56-1.16.37-1.45-.41Zm.16-2.34a3.95,3.95,0,1,0-4-3.81A3.85,3.85,0,0,0,308.78,350.92Zm-3.22.59-.76,2.11a1.74,1.74,0,0,1,1.77.62l.69-1.89Zm5.12,2.77a1.72,1.72,0,0,1,1.75-.68l-.7-1.92-1.73.75Z" transform="translate(-266.65 -311.99)"/><path class="cls-1" d="M308.78,360.45h4.64a.8.8,0,0,1,.89.79.81.81,0,0,1-.88.8h-9.36a.8.8,0,1,1,0-1.6c.43,0,.87,0,1.3,0h3.42Z" transform="translate(-266.65 -311.99)"/><path class="cls-1" d="M308.75,365.2h-4.68a.77.77,0,0,1-.84-.89.78.78,0,0,1,.87-.68h9.4a.79.79,0,0,1,.8.64.76.76,0,0,1-.44.86,1.38,1.38,0,0,1-.51.08Z" transform="translate(-266.65 -311.99)"/><path class="cls-2" d="M308.77,396.24a42.13,42.13,0,1,1,42.13-42.12A42.17,42.17,0,0,1,308.77,396.24Zm0-83.25a41.13,41.13,0,1,0,41.13,41.13A41.17,41.17,0,0,0,308.77,313Z" transform="translate(-266.65 -311.99)"/></svg>