<svg id="Слой_1" data-name="Слой 1" xmlns="http://www.w3.org/2000/svg" viewBox="0 0 84.25 84.25"><defs><style>.cls-1{fill:#e41e25;}</style></defs><title>preim3</title><path class="cls-1" d="M308,396.92a42.13,42.13,0,1,1,42.13-42.12A42.17,42.17,0,0,1,308,396.92Zm0-83.25a41.13,41.13,0,1,0,41.13,41.13A41.17,41.17,0,0,0,308,313.67Z" transform="translate(-265.89 -312.67)"/><path d="M296.4,351.14a7.13,7.13,0,1,1,7.94-7.94h7.32A7.14,7.14,0,0,1,315,338a6.8,6.8,0,0,1,4.67-1,7.13,7.13,0,0,1-.08,14.13v7.32a7.14,7.14,0,0,1,5.17,3.32,6.83,6.83,0,0,1,1,4.7,7.13,7.13,0,0,1-14.13-.08h-7.32a7.14,7.14,0,0,1-3.32,5.17,6.88,6.88,0,0,1-4.66,1,7.13,7.13,0,0,1,0-14.14ZM308,353.56l5.14-5.14a7.21,7.21,0,0,1-1.45-3.5h-7.35a7.19,7.19,0,0,1-1.45,3.52Zm-5.1,7.62a7.23,7.23,0,0,1,1.45,3.51h7.34a7.21,7.21,0,0,1,1.45-3.51L308,356.06Zm6.38-6.38,5.12,5.13a7.21,7.21,0,0,1,3.5-1.45v-7.34a7.22,7.22,0,0,1-3.5-1.45Zm-2.52,0-5.12-5.13a7.2,7.2,0,0,1-3.5,1.45v7.28A19.23,19.23,0,0,1,300,359c.59.25,1.14.6,1.69.9ZM297.26,371a5.54,5.54,0,0,0,3.43-1.23c.62-.5.67-.68.26-1.38a2.82,2.82,0,0,0-2.49-1.41.82.82,0,0,1-.83-.72.87.87,0,0,1,.61-.92.69.69,0,0,0,.34-.3,1.42,1.42,0,0,0-.39-1.72,1.46,1.46,0,0,0-1.8,0,1.42,1.42,0,0,0-.44,1.71.8.8,0,0,0,.38.35.87.87,0,0,1,.59.8.82.82,0,0,1-.85.84,2.76,2.76,0,0,0-2.7,2,.44.44,0,0,0,.14.49A5.54,5.54,0,0,0,297.26,371Zm21.27,0a5.66,5.66,0,0,0,3.5-1.11c.79-.61.83-1,.22-1.78l-.11-.14a2.94,2.94,0,0,0-2.19-1,.81.81,0,0,1-.83-.71.86.86,0,0,1,.6-.93.7.7,0,0,0,.34-.3,1.41,1.41,0,0,0-.26-1.6,1.45,1.45,0,0,0-1.59-.35,1.43,1.43,0,0,0-.9,1.36c0,.41.07.82.59,1a.71.71,0,0,1,.5.7.76.76,0,0,1-.42.76,1.3,1.3,0,0,1-.51.12,2.75,2.75,0,0,0-2.63,2,.44.44,0,0,0,.13.5A5.4,5.4,0,0,0,318.53,371Zm-21.25-21.48A5.33,5.33,0,0,0,301,348a.57.57,0,0,0,.13-.45,2.4,2.4,0,0,0-1.19-1.59,3.24,3.24,0,0,0-1.55-.41.82.82,0,0,1-.8-.75.88.88,0,0,1,.61-.89.69.69,0,0,0,.34-.3,1.44,1.44,0,0,0-1.61-2,1.39,1.39,0,0,0-1.1,1.07,1,1,0,0,0,.59,1.31.82.82,0,0,1,.46.84.8.8,0,0,1-.64.71c-.2,0-.4,0-.6.06a2.69,2.69,0,0,0-2.31,1.95.44.44,0,0,0,.13.49A5.48,5.48,0,0,0,297.28,349.51Zm21.5,0a5.34,5.34,0,0,0,3.77-1.57.51.51,0,0,0,.12-.39,2.32,2.32,0,0,0-1-1.47,3,3,0,0,0-1.75-.57.82.82,0,0,1-.84-.71.86.86,0,0,1,.62-.95.65.65,0,0,0,.33-.31,1.4,1.4,0,0,0-.26-1.57,1.44,1.44,0,0,0-1.55-.37,1.42,1.42,0,0,0-.94,1.32c0,.43.05.86.61,1a.77.77,0,0,1,.48.83.82.82,0,0,1-.67.73c-.18,0-.37,0-.56.05a2.65,2.65,0,0,0-2.32,2,.57.57,0,0,0,.13.45A5.35,5.35,0,0,0,318.77,349.51Zm-18.59-5.35a4.66,4.66,0,0,1,2.17,1.78,5.4,5.4,0,0,0-1.94-6.31,5.46,5.46,0,0,0-6.68.3,5.32,5.32,0,0,0-1.56,6,11.5,11.5,0,0,1,1-1,12.38,12.38,0,0,1,1.2-.78,3.16,3.16,0,0,1,1.1-3.68,3.1,3.1,0,0,1,3.55-.07C300.21,341.17,300.59,342.38,300.18,344.15Zm15.66,0a3.11,3.11,0,0,1,1-3.69,3,3,0,0,1,3.42-.2,3.1,3.1,0,0,1,1.35,3.89,4.58,4.58,0,0,1,2.16,1.78,5.38,5.38,0,0,0-1.9-6.3,5.44,5.44,0,0,0-7,.54,5.24,5.24,0,0,0-1.25,5.75A4.59,4.59,0,0,1,315.84,344.15Zm8,23.25a5.31,5.31,0,0,0-1.58-6,5.46,5.46,0,0,0-6.93,0,5.32,5.32,0,0,0-1.61,6.07,4.59,4.59,0,0,1,2.16-1.76,3.11,3.11,0,0,1,1.18-3.79,3,3,0,0,1,3.42,0,3.11,3.11,0,0,1,1.22,3.81A4.58,4.58,0,0,1,323.81,367.4Zm-23.63-1.77a4.54,4.54,0,0,1,2.16,1.78,5.39,5.39,0,0,0-1.93-6.32,5.46,5.46,0,0,0-6.65.27,5.33,5.33,0,0,0-1.59,6,11.57,11.57,0,0,1,1-1,12.53,12.53,0,0,1,1.2-.78,3.16,3.16,0,0,1,1.1-3.68,3.11,3.11,0,0,1,3.52-.09C300.2,362.62,300.59,363.84,300.18,365.63Z" transform="translate(-265.89 -312.67)"/></svg>