<svg id="Слой_1" data-name="Слой 1" xmlns="http://www.w3.org/2000/svg" viewBox="0 0 16.09 13.41"><defs><style>.cls-1{fill:#e41e25;}</style></defs><title>price_download</title><path class="cls-1" d="M300.1,423.93l-1.54,1.54v-4.41a.67.67,0,0,0-1.34,0v4.41l-1.54-1.54a.67.67,0,0,0-.95.95l2.68,2.68a.67.67,0,0,0,.95,0l2.68-2.68a.67.67,0,0,0-.95-.95Z" transform="translate(-289.84 -414.35)"/><path class="cls-1" d="M305.2,420.08a4,4,0,0,0-3.29-1.71h-.35a6,6,0,1,0-10.21,6,.67.67,0,1,0,1-.89,4.71,4.71,0,0,1-1-1.94,4.69,4.69,0,1,1,9.09-2.33.67.67,0,0,0,.65.5h.85a2.68,2.68,0,0,1,1.54,4.87.67.67,0,0,0,.77,1.1,4,4,0,0,0,1-5.6Z" transform="translate(-289.84 -414.35)"/></svg>