<svg id="Слой_1" data-name="Слой 1" xmlns="http://www.w3.org/2000/svg" viewBox="0 0 14.06 14.06"><defs><style>.cls-1{fill:#1a1a1a;}</style></defs><title>search</title><path class="cls-1" d="M296.75,416.76a.64.64,0,0,0-.62-.63,2.58,2.58,0,0,0-1.61.85,2.81,2.81,0,0,0-.89,1.65.63.63,0,0,0,1.24.11,1.9,1.9,0,0,1,1.37-1.36A.63.63,0,0,0,296.75,416.76Zm4.49,5.22a5.47,5.47,0,1,0-1.76,1.76l3.59,3.59a1.24,1.24,0,1,0,1.75-1.76Zm-4.64,1a3.91,3.91,0,1,1,3.91-3.91A3.91,3.91,0,0,1,296.59,423Z" transform="translate(-291.13 -413.63)"/></svg>