<svg id="Слой_1" data-name="Слой 1" xmlns="http://www.w3.org/2000/svg" viewBox="0 0 28.99 32.18"><defs><style>.cls-1{fill:#e41e25;}</style></defs><title>sklad</title><path class="cls-1" d="M294.46,371.8c0-1.34,0-2.64,0-4q0-6.75,0-13.51a14.48,14.48,0,0,1,28.59-3.47,15.25,15.25,0,0,1,.37,3.17c0,5.81,0,11.62,0,17.43v.33Zm16-6.38q0,1.24,0,2.48c0,.22,0,.44,0,.66h3.2v-3.14H310.5c0-.35.05-.7.05-1,0-.72,0-1.45,0-2.19h-3.21c0,.91,0,1.8,0,2.69,0,.18,0,.37.06.55h-3.26v3.13h3.2c0-.82,0-1.61,0-2.4,0-.25,0-.49.05-.74Zm9.69,3.18c0-.13,0-.22,0-.31,0-4.75,0-9.51,0-14.26a10.73,10.73,0,0,0-.21-2.1,11.25,11.25,0,0,0-22.29,1.87c0,4.83,0,9.66,0,14.49,0,.1,0,.19,0,.31h3.19V359H317v9.61Z" transform="translate(-294.46 -339.63)"/><path class="cls-1" d="M300.92,352.53h3.17v3.18h-3.17Z" transform="translate(-294.46 -339.63)"/><path class="cls-1" d="M317,355.72H313.8v-3.19H317Z" transform="translate(-294.46 -339.63)"/><path class="cls-1" d="M310.54,352.53v3.18h-3.17v-3.18Z" transform="translate(-294.46 -339.63)"/></svg>