<svg id="Слой_1" data-name="Слой 1" xmlns="http://www.w3.org/2000/svg" viewBox="0 0 14.97 14.96"><defs><style>.cls-1{fill:#e41e25;}</style></defs><title>tag</title><g id="Icon-Tag"><path id="Fill-129" class="cls-1" d="M380.93,416.88a1.69,1.69,0,0,1-1.21-.5L375,411.65a1.69,1.69,0,0,1,0-2.42l6.32-6.32a3.77,3.77,0,0,1,2.38-1h4.05a1.73,1.73,0,0,1,1.71,1.71v4.05a3.77,3.77,0,0,1-1,2.38l-6.32,6.32a1.69,1.69,0,0,1-1.21.5ZM383.7,403a2.8,2.8,0,0,0-1.63.68L375.74,410a.62.62,0,0,0,0,.89l4.73,4.73a.62.62,0,0,0,.89,0l6.32-6.32a2.7,2.7,0,0,0,.68-1.63v-4.05a.64.64,0,0,0-.64-.64h-4Z" transform="translate(-374.49 -401.92)"/><path id="Fill-130" class="cls-1" d="M385.19,408.28a2.1,2.1,0,1,1,2.1-2.1,2.1,2.1,0,0,1-2.1,2.1Zm0-3.2a1.1,1.1,0,1,0,1.1,1.1,1.11,1.11,0,0,0-1.1-1.1Z" transform="translate(-374.49 -401.92)"/></g></svg>