<svg id="Слой_1" data-name="Слой 1" xmlns="http://www.w3.org/2000/svg" viewBox="0 0 205.34 246.12"><defs><style>.cls-1{fill:#f4f4f4;}</style></defs><title>timer</title><path class="cls-1" d="M400.19,324.2c-.17,1.1-.37,1.91-.41,2.72-.35,7.32-.28,7.12,6.78,9.16,6.85,2,13.56,4.41,21,6.87,2.48-3,5.38-6.65,8.34-10.21,5.41-6.52,11.09-7.13,17.73-1.84Q463,338.37,472.28,346c6.68,5.49,7.22,11.29,1.74,18.16-2.89,3.63-5.81,7.22-8.66,10.76,35.06,51.12,19.38,108.85-17.08,139.54-37.9,31.9-94.19,31.82-132-.09-36.73-31-51.84-89-16.91-139.53-3-3.67-6-7.37-9-11.16-5-6.43-4.44-12.24,1.82-17.43s12.62-10.35,19-15.43c6.57-5.23,12.36-4.56,17.76,2,2.85,3.45,5.63,7,8.15,10.09l27-8.85V324.2c-3.35-.24-6.52-.21-9.59-.73-8-1.35-11.77-7.55-11.1-17.86.51-7.74,5.44-13.16,12.91-13.25q26.24-.31,52.48,0c8,.11,12.7,5.93,13.22,15.24.47,8.33-4.32,14.86-11.91,15.93C406.88,324,403.56,324,400.19,324.2Zm75.45,111.74c.16-51.18-41.29-93.19-92.26-93.5A93.17,93.17,0,0,0,289,435.86c-.11,51.24,41.68,93.17,93,93.34A93.44,93.44,0,0,0,475.64,435.94Zm-93.3-121.46v0c8.16,0,16.33-.13,24.49,0,5.05.11,5.52-2.8,5.57-6.78s-1.14-6.32-5.61-6.3q-24.24.12-48.49,0c-5,0-5.59,2.91-5.6,6.87s1,6.34,5.64,6.22C366.34,314.33,374.34,314.48,382.34,314.48ZM305,366.87l23.61-19.7-9.06-11.12L295.73,355.4ZM436.2,347.2l23.57,19.69,9.33-11.47-23.86-19.35Zm-62.25-14.43h16.18v-8.26H373.95Z" transform="translate(-279.66 -292.21)"/><path class="cls-1" d="M382.13,351c46.44-.15,84.94,37.92,85.1,84.16a85.09,85.09,0,0,1-84.95,85.33c-46.22.19-84.68-38.09-84.83-84.42C297.29,389.39,335.36,351.15,382.13,351Zm-75.21,84.45c-.45,41.34,33.21,75.42,74.88,75.82s75.64-33.28,76-75.24c.35-41-33-75.22-73.91-75.71C341.15,359.8,307.38,392.77,306.91,435.45Z" transform="translate(-279.66 -292.21)"/><path class="cls-1" d="M388.72,429.28a10.52,10.52,0,0,1-2.61-6.3c-.23-13.32-.12-26.66-.12-40,0-1.33,0-2.67,0-4-.14-2.89-1.56-5.28-4.26-5-2.7-.25-4.12,2.14-4.26,5-.07,1.33,0,2.67,0,4,0,13.33.12,26.66-.12,40a10.52,10.52,0,0,1-2.61,6.3c-4.48,4.93-4.9,11.63,0,16a7.67,7.67,0,0,1,2.75,6.9c-.17,3.18.56,6.11,4.24,6.37h0c3.68-.26,4.41-3.19,4.24-6.37a7.67,7.67,0,0,1,2.75-6.9C393.63,440.91,393.2,434.21,388.72,429.28Z" transform="translate(-279.66 -292.21)"/></svg>