<svg id="Слой_1" data-name="Слой 1" xmlns="http://www.w3.org/2000/svg" viewBox="0 0 14.76 14.78"><title>ves</title><path d="M388.9,416.68s0,.05,0,.06H374.25s-.12.06-.12-.05,0-.07,0-.11l.5-2.39,1.72-8.24.21-1h3.21l-.06-.13A2,2,0,0,1,381,402l.29-.07h.46l.1,0a2,2,0,0,1,1.61,2.28,5.8,5.8,0,0,1-.2.64h3.18l0,.18.74,3.53,1.43,6.86C388.72,415.9,388.81,416.29,388.9,416.68Zm-1.24-.93s0-.08,0-.11l-.3-1.5q-.81-4-1.61-8.06c0-.13-.07-.18-.21-.18h-8c-.11,0-.16,0-.18.14s-.05.27-.08.41l-1.73,8.64-.13.65Zm-6.14-10.82a1,1,0,0,0,0-2,1,1,0,0,0,0,2Z" transform="translate(-374.13 -401.98)"/><path d="M384,411.09l-.1.11c-.6.6-1.22,1.2-1.81,1.82a.74.74,0,0,1-.7.27.24.24,0,0,1-.13-.05l-2.13-2.13h0l.73-.73,1.21,1.22v-3.2h1v3.17l1.21-1.21Z" transform="translate(-374.13 -401.98)"/></svg>