<svg id="Слой_1" data-name="Слой 1" xmlns="http://www.w3.org/2000/svg" viewBox="0 0 16.02 9.52"><defs><style>.cls-1{fill:#ffffff;}</style></defs><title>vk</title><g id="comp_364-vk"><path class="cls-1" d="M316.05,350.62c.11-.37,0-.65-.53-.65h-1.75a.75.75,0,0,0-.76.5,14.68,14.68,0,0,1-2.15,3.58c-.41.41-.59.54-.82.54s-.28-.13-.28-.5v-3.47c0-.45-.12-.65-.49-.65h-2.75a.42.42,0,0,0-.45.4c0,.42.63.52.7,1.71v2.58c0,.57-.1.67-.32.67-.59,0-2-2.18-2.9-4.68-.17-.48-.34-.68-.79-.68H301c-.5,0-.6.23-.6.5,0,.46.59,2.77,2.77,5.82a6.83,6.83,0,0,0,5.35,3.21c1.12,0,1.25-.25,1.25-.68,0-2-.1-2.17.46-2.17.26,0,.7.13,1.75,1.13,1.19,1.19,1.39,1.72,2.05,1.72h1.75c.5,0,.75-.25.61-.74-.33-1-2.58-3.17-2.69-3.32-.26-.33-.18-.48,0-.78a21.79,21.79,0,0,0,2.36-4Z" transform="translate(-300.39 -349.97)"/></g></svg>