<svg id="Слой_1" data-name="Слой 1" xmlns="http://www.w3.org/2000/svg" viewBox="0 0 16.77 16.77"><defs><style>.cls-1{fill:#ffffff;}</style></defs><title>whatsapp</title><path class="cls-1" d="M316.44,354.16a8.25,8.25,0,0,1-12.21,7.15l-4.56,1.45,1.49-4.38a8.08,8.08,0,0,1-1.18-4.22,8.23,8.23,0,0,1,16.47,0m-8.23-6.87a6.9,6.9,0,0,0-6.92,6.87,6.8,6.8,0,0,0,1.32,4l-.86,2.55,2.66-.85a6.89,6.89,0,1,0,3.81-12.6m4.16,8.75c-.05-.08-.19-.13-.39-.23s-1.19-.58-1.38-.65-.32-.1-.45.1-.52.65-.64.78-.24.15-.44.05a5.52,5.52,0,0,1-1.62-1,6,6,0,0,1-1.12-1.39c-.12-.2,0-.31.09-.41s.2-.23.3-.35a1.34,1.34,0,0,0,.2-.33.36.36,0,0,0,0-.35c-.05-.1-.45-1.09-.62-1.49s-.34-.33-.45-.33l-.39,0a.74.74,0,0,0-.54.25,2.24,2.24,0,0,0-.71,1.67,3.88,3.88,0,0,0,.82,2.07,8.25,8.25,0,0,0,3.45,3c2.05.8,2.05.53,2.42.5a2,2,0,0,0,1.36-1,1.67,1.67,0,0,0,.12-1" transform="translate(-299.67 -345.99)"/></svg>