<svg id="Слой_1" data-name="Слой 1" xmlns="http://www.w3.org/2000/svg" viewBox="0 0 18.06 18.06"><defs><style>.cls-1{fill:#010101;}</style></defs><polygon class="cls-1" points="11.31 5.84 9.03 8.12 6.75 5.84 5.84 6.75 8.12 9.03 5.84 11.31 6.75 12.22 9.03 9.94 11.31 12.22 12.22 11.31 9.94 9.03 12.22 6.75 11.31 5.84"/><path class="cls-1" d="M350.25,490.16a9,9,0,1,0,9,9A9,9,0,0,0,350.25,490.16Zm0,16.77a7.74,7.74,0,1,1,7.74-7.74A7.75,7.75,0,0,1,350.25,506.93Z" transform="translate(-341.22 -490.16)"/></svg>