<svg id="Слой_1" data-name="Слой 1" xmlns="http://www.w3.org/2000/svg" viewBox="0 0 12.45 12.98"><path d="M355.77,497.67l-6.25,6.25a2.64,2.64,0,0,1-3.73-3.74h0l6-6a1.83,1.83,0,0,1,2.5,0,1.78,1.78,0,0,1,0,2.46l-5.56,5.56a.86.86,0,0,1-1.41-.67.9.9,0,0,1,.25-.62h0l5.28-5.28-.69-.7-5.29,5.28h0a1.87,1.87,0,0,0,0,2.63,1.84,1.84,0,0,0,1.31.54,1.9,1.9,0,0,0,1.13-.38h0l.09-.09.09-.08h0l5.47-5.47h0l.07-.08h0a2.7,2.7,0,0,0,.71-1.84,2.74,2.74,0,0,0-4.66-2L345,499.57h0a3.64,3.64,0,0,0-1,2.47,3.57,3.57,0,0,0,1.07,2.56,3.61,3.61,0,0,0,2.56,1.07,3.64,3.64,0,0,0,2.44-.94h0l6.38-6.38Z" transform="translate(-344.02 -492.7)"/></svg>