<svg id="Слой_1" data-name="Слой 1" xmlns="http://www.w3.org/2000/svg" viewBox="0 0 12.95 12.95"><defs><style>.cls-1{fill:#cc1c1c;}</style></defs><path class="cls-1" d="M344.18,500a.41.41,0,0,0-.41.4v.81a.41.41,0,0,0,.41.4H347V500Z" transform="translate(-343.77 -492.71)"/><path class="cls-1" d="M356.55,495.37l-2.48-2.48a.62.62,0,0,0-.43-.18h-.15V496h3.23v-.15A.61.61,0,0,0,356.55,495.37Z" transform="translate(-343.77 -492.71)"/><path class="cls-1" d="M352.68,496.15v-3.44h-5.06a.61.61,0,0,0-.61.61V500h3.24v-1.65a.41.41,0,0,1,.69-.29l2.42,2.44a.43.43,0,0,1,0,.61l-2.42,2.44a.41.41,0,0,1-.69-.29v-1.65H347v3.44a.61.61,0,0,0,.61.61h8.5a.6.6,0,0,0,.6-.61v-8.29h-3.44A.6.6,0,0,1,352.68,496.15Z" transform="translate(-343.77 -492.71)"/></svg>