<svg id="Слой_1" data-name="Слой 1" xmlns="http://www.w3.org/2000/svg" viewBox="0 0 24.43 32.9"><path d="M285.86,437.23v-32.9h18.62a.67.67,0,0,1,.53.22l5.08,5.09a.68.68,0,0,1,.19.41q0,13.59,0,27.18Zm23.25-1.18V410.67h-5.18v-5.15H287v30.53Zm-4-26.58h2.95l-2.95-3Z" transform="translate(-285.86 -404.33)"/><path d="M306.28,413.92V431h-16.4V413.92Zm-15.23,1.15v2h14v-2Zm9.65,3.21h-9.65v2h9.65Zm-9.65,8.33h9.64v-2h-9.64Zm9.65,1.25h-9.64v2h9.64Zm-9.64-4.44h9.64v-1.95h-9.64Zm10.85-3.17h3.19v-2h-3.19Zm0,4.4v2h3.18v-2Zm3.18,3.21h-3.19v2h3.19Zm0-6.38h-3.18v1.93h3.18Z" transform="translate(-285.86 -404.33)"/><path d="M301.84,411.68v1.14h-12v-1.14Z" transform="translate(-285.86 -404.33)"/><path d="M295.42,410.66h-5.54v-1.15l.34,0h4.85c.29,0,.38.08.35.36S295.42,410.38,295.42,410.66Z" transform="translate(-285.86 -404.33)"/><path d="M306.28,432.05v1.16h-5.55c0-.34,0-.68,0-1,0-.06.18-.15.28-.15h5.25Z" transform="translate(-285.86 -404.33)"/></svg>