<svg id="Слой_1" data-name="Слой 1" xmlns="http://www.w3.org/2000/svg" viewBox="0 0 10.8 10.9"><defs><style>.cls-1{fill:#424242;}</style></defs><path class="cls-1" d="M298.1,425.38h-3.83c-.59,0-.82-.24-.82-.83,0-1.06,0-2.11,0-3.17,0-1.47,0-2.94,0-4.41,0-.58.24-.81.81-.81h3.86c.36,0,.57-.23.49-.53s-.28-.31-.5-.31c-1.33,0-2.65,0-4,0a1.45,1.45,0,0,0-1.49,1.54v7.75a1.47,1.47,0,0,0,1.6,1.59h4a.41.41,0,0,0,.39-.56A.46.46,0,0,0,298.1,425.38Z" transform="translate(-292.64 -415.33)"/><path class="cls-1" d="M303.24,420.41l-2.49-2.49c-.25-.24-.46-.26-.66-.07s-.16.42.07.65.61.62.92.92.61.58.91.87a1,1,0,0,1-.42.07h-3.83c-.29,0-.59,0-.88,0a.39.39,0,0,0-.43.41.41.41,0,0,0,.42.43H302a2.22,2.22,0,0,0-.22.23l-1.67,1.67a.41.41,0,1,0,.57.59c.86-.86,1.73-1.72,2.58-2.59C303.51,420.86,303.49,420.67,303.24,420.41Z" transform="translate(-292.64 -415.33)"/></svg>