<svg id="Слой_1" data-name="Слой 1" xmlns="http://www.w3.org/2000/svg" viewBox="0 0 9.43 6.5"><defs><style>.cls-1{fill:#e41515;}</style></defs><path class="cls-1" d="M347.26,502.44A1.75,1.75,0,0,1,346,502a1.53,1.53,0,0,1-.42-1.11v-.41a4.25,4.25,0,0,1,.18-1.19,7.17,7.17,0,0,1,.49-1.23,7.55,7.55,0,0,1,.75-1.15,6,6,0,0,1,1-1h1.85a10.44,10.44,0,0,0-1.24,1.45,5,5,0,0,0-.73,1.57,1.36,1.36,0,0,1,.91.54,1.68,1.68,0,0,1,.29,1v.43a1.53,1.53,0,0,1-.42,1.11A1.75,1.75,0,0,1,347.26,502.44Zm5.21,0a1.75,1.75,0,0,1-1.31-.43,1.53,1.53,0,0,1-.42-1.11v-.41a4.25,4.25,0,0,1,.18-1.19,6.44,6.44,0,0,1,.49-1.23,7.55,7.55,0,0,1,.75-1.15,5.24,5.24,0,0,1,1-1H355a11,11,0,0,0-1.23,1.45A5,5,0,0,0,353,499a1.36,1.36,0,0,1,.91.54,1.68,1.68,0,0,1,.29,1v.43a1.53,1.53,0,0,1-.42,1.11A1.75,1.75,0,0,1,352.47,502.44Z" transform="translate(-345.53 -495.94)"/></svg>