<svg id="Слой_1" data-name="Слой 1" xmlns="http://www.w3.org/2000/svg" viewBox="0 0 17.05 17.05"><defs><style>.cls-1{fill:#fff;}</style></defs><path class="cls-1" d="M289.54,420.76a8.53,8.53,0,1,1,8.51,8.54A8.53,8.53,0,0,1,289.54,420.76Zm8,7.85c4.9,0,8.38-3.52,8.41-7.75a7.82,7.82,0,0,0-7.74-7.92,7.6,7.6,0,0,0-5.64,2.29,7.83,7.83,0,0,0-2.21,6.88,8,8,0,0,0,2.2,4.22A7.51,7.51,0,0,0,297.5,428.61Z" transform="translate(-289.54 -412.25)"/><path class="cls-1" d="M299.69,421.78l.54.22a5,5,0,0,1,1.13.69,5.37,5.37,0,0,1,1.07,1.16,5.47,5.47,0,0,1,.67,1.4.35.35,0,0,1-.22.43.33.33,0,0,1-.42-.22,4.7,4.7,0,0,0-.72-1.41,4.48,4.48,0,0,0-1.51-1.29,4.41,4.41,0,0,0-1.11-.43c-.24-.05-.48-.07-.72-.11a4,4,0,0,0-1.1,0,6.86,6.86,0,0,0-.78.2,4.57,4.57,0,0,0-1.25.67A4.37,4.37,0,0,0,294,424.5c-.14.25-.25.51-.37.78a.32.32,0,0,1-.48.13.34.34,0,0,1-.13-.46,5.49,5.49,0,0,1,1.58-2.2,5.56,5.56,0,0,1,1.27-.78c.15-.07.31-.12.47-.18a3.37,3.37,0,0,1-1.71-3.08,3.22,3.22,0,0,1,1-2.26,3.35,3.35,0,0,1,4.86.14,3.24,3.24,0,0,1,.82,2.79A3.35,3.35,0,0,1,299.69,421.78Zm1-2.93a2.68,2.68,0,1,0-2.73,2.67A2.67,2.67,0,0,0,300.71,418.85Z" transform="translate(-289.54 -412.25)"/></svg>