<svg id="Слой_1" data-name="Слой 1" xmlns="http://www.w3.org/2000/svg" viewBox="0 0 38.77 38.77"><defs><style>.cls-1{fill:#dedede;}</style></defs><path class="cls-1" d="M298.34,401.38a19.39,19.39,0,1,0,19,19.75A19.4,19.4,0,0,0,298.34,401.38ZM297.52,438a17.2,17.2,0,1,1,17.67-17.19A17.19,17.19,0,0,1,297.52,438Z" transform="translate(-278.61 -401.38)"/><path class="cls-1" d="M300.91,426.87c-.21,0-.42,0-.62-.05-.55-.08-.79-.16-.94-.65a2.45,2.45,0,0,1-.09-.72V416h-4.68c0,.36,0,.7,0,1,0,.14,0,.19.18.18a8.65,8.65,0,0,1,1.14,0c.69.07,1.08.17,1.12,1.1s0,1.72,0,2.58c0,1.62,0,3.25,0,4.87,0,.54-.22.86-.72.92s-.89.08-1.34.11h-.35v1.2h7v-1.2Z" transform="translate(-278.61 -401.38)"/><path class="cls-1" d="M297.81,413.62a1.44,1.44,0,0,0,1.45-1.42,1.46,1.46,0,0,0-1.44-1.46,1.44,1.44,0,0,0,0,2.88Z" transform="translate(-278.61 -401.38)"/></svg>