<svg id="Слой_1" data-name="Слой 1" xmlns="http://www.w3.org/2000/svg" viewBox="0 0 27.95 27.95"><defs><style>.cls-1{fill:#e41d20;}</style></defs><path class="cls-1" d="M350.44,485.21a14,14,0,1,0,13.72,14.23A14,14,0,0,0,350.44,485.21Zm-.59,26.37a12.4,12.4,0,1,1,12.74-12.4A12.4,12.4,0,0,1,349.85,511.58Z" transform="translate(-336.21 -485.21)"/><path class="cls-1" d="M352.29,503.58l-.45,0c-.39-.06-.56-.11-.67-.46a1.85,1.85,0,0,1-.06-.52q0-3.3,0-6.59v-.2h-3.37c0,.26,0,.51,0,.76s0,.13.13.13a7.45,7.45,0,0,1,.82,0c.5.06.78.13.81.8s0,1.23,0,1.85c0,1.18,0,2.35,0,3.52,0,.39-.16.62-.51.66s-.65.06-1,.08h-.25v.87h5v-.87Z" transform="translate(-336.21 -485.21)"/><path class="cls-1" d="M350.06,494a1,1,0,0,0,1-1,1.06,1.06,0,0,0-1-1.05,1,1,0,0,0,0,2.08Z" transform="translate(-336.21 -485.21)"/></svg>