<svg id="Слой_1" data-name="Слой 1" xmlns="http://www.w3.org/2000/svg" viewBox="0 0 24.93 24.93"><defs><style>.cls-1{fill:#e11423;}</style></defs><path class="cls-1" d="M361.78,486.72H338.71a.93.93,0,0,0-.93.93v23.07a.93.93,0,0,0,.93.93h23.07a.92.92,0,0,0,.93-.93V487.65A.93.93,0,0,0,361.78,486.72Zm-9.24,1.86v5.58H348v-5.58Zm8.31,21.21H339.64V488.58h6.45v6.51a.93.93,0,0,0,.93.93h6.45a.92.92,0,0,0,.93-.93v-6.51h6.45Z" transform="translate(-337.78 -486.72)"/><path class="cls-1" d="M347.2,498.85h0a.91.91,0,0,0-1.31,0l-2.29,2.28a.93.93,0,0,0,1.32,1.32l.69-.7v4a.94.94,0,0,0,1.87,0v-4l.69.7a1,1,0,0,0,.66.27.93.93,0,0,0,.66-1.59Z" transform="translate(-337.78 -486.72)"/><path class="cls-1" d="M353.3,498.85,351,501.13a.94.94,0,0,0,0,1.3.92.92,0,0,0,1.31,0l.7-.7v4a.93.93,0,1,0,1.86,0v-4l.7.7a.94.94,0,0,0,1.32,0,.94.94,0,0,0,0-1.32l-2.29-2.28A.91.91,0,0,0,353.3,498.85Z" transform="translate(-337.78 -486.72)"/></svg>