<svg id="Слой_1" data-name="Слой 1" xmlns="http://www.w3.org/2000/svg" viewBox="0 0 83.46 112.02"><defs><style>.cls-1{fill:#e1e1e1;}</style></defs><path class="cls-1" d="M339.78,423.07c0-4.19,0-8.37,0-12.55a2.48,2.48,0,0,0-2.75-2.79c-3.71.1-7.42,0-11.12,0H288c-1.33,0-1.78-.45-1.78-1.73,0-3.66-.05-7.32.05-11a10.49,10.49,0,0,1,.79-3.71,11.55,11.55,0,0,1,9.84-7.42A11.91,11.91,0,0,1,310,395.79a2.44,2.44,0,0,0,2.33,2.35,2.4,2.4,0,0,0,2.37-2,15.53,15.53,0,0,0-3.35-10.42,16.42,16.42,0,0,0-8.9-6,16.22,16.22,0,0,0-8-.2,16.59,16.59,0,0,0-13,15.49c-.08,3.65,0,7.31,0,11,0,1.28-.48,1.8-1.76,1.82-2,0-4.09,0-6.13,0-1.28,0-1.65-.44-1.66-1.75,0-3.23,0-6.46,0-9.69a26.18,26.18,0,0,1,12.38-22.84,25.22,25.22,0,0,1,15.64-3.81,25.8,25.8,0,0,1,8.82,2.13,26,26,0,0,1,15.53,23.88,2.41,2.41,0,0,0,2.52,2.47,2.56,2.56,0,0,0,2.3-2.78c-.14-1.63-.29-3.27-.53-4.89A28.08,28.08,0,0,0,324,378.8a30.6,30.6,0,0,0-22.9-13.87,29.4,29.4,0,0,0-12.92,1.45A31.22,31.22,0,0,0,269.43,384a27.11,27.11,0,0,0-2.21,9.71c0,1.79,0,3.59,0,5.39,0,2.31-.12,4.62-.16,6.93,0,1.32-.43,1.74-1.77,1.74-2.17,0-4.35,0-6.52,0a1.86,1.86,0,0,0-1.85.88,4.83,4.83,0,0,0-.53,2c0,9.15-.05,18.31,0,27.47a48.11,48.11,0,0,0,.55,6.56,29,29,0,0,0,3.4,9.76,40.2,40.2,0,0,0,10.51,12.37,45.89,45.89,0,0,0,14.72,7.9,38.69,38.69,0,0,0,15.31,1.9,45.18,45.18,0,0,0,8.49-1.56A44.15,44.15,0,0,0,324,467.8c1.46-1.12,2.77-2.43,4.13-3.68a30.12,30.12,0,0,0,2.81-2.72c1-1.15,1.77-2.44,2.64-3.68a32.53,32.53,0,0,0,2.39-3.48,33.54,33.54,0,0,0,3.87-16.15C339.74,433.08,339.78,428.08,339.78,423.07Zm-11.36,34A39.28,39.28,0,0,1,312.47,469,36.81,36.81,0,0,1,296,471.9a40.61,40.61,0,0,1-27.85-14.17,30.77,30.77,0,0,1-5.73-10.38,31.75,31.75,0,0,1-1.26-10.2q0-11.31,0-22.62c0-2,.07-2,2.06-2h69.86c1.75,0,1.87.13,1.87,1.92q0,12.25,0,24.51A28.35,28.35,0,0,1,328.42,457.08Z" transform="translate(-256.33 -364.75)"/><path class="cls-1" d="M301.67,422.51a12.33,12.33,0,0,0-8.2.29,12.71,12.71,0,0,0-8.12,9.23,13,13,0,0,0,9.17,15.57,1.45,1.45,0,0,1,1.19,1.66c-.07,1.18,0,2.37,0,3.56s0,2.44,0,3.65a2.36,2.36,0,1,0,4.72,0c0-2.4,0-4.81,0-7.21,0-1,.49-1.33,1.23-1.66a24.42,24.42,0,0,0,3.87-1.82,12.78,12.78,0,0,0,4.86-15.17A12.61,12.61,0,0,0,301.67,422.51Zm-3.73,20.93a8.64,8.64,0,0,1-8.24-8.68c.13-4,3.93-8.24,8.56-8,4.29.2,8.3,3.87,8.11,8.37C306.58,439.44,302.48,443.49,297.94,443.44Z" transform="translate(-256.33 -364.75)"/></svg>