<svg id="Слой_1" data-name="Слой 1" xmlns="http://www.w3.org/2000/svg" viewBox="0 0 91.62 122.97"><defs><style>.cls-1{fill:#e4e5e4;}</style></defs><path class="cls-1" d="M396,501.7q0-6.88,0-13.78c0-1.65-.79-3.11-3-3.05-4.07.11-8.14,0-12.21,0H347.93c-2.93,0-5.86,0-8.79,0-1.47,0-1.95-.5-1.95-1.9,0-4-.07-8,.05-12a11.58,11.58,0,0,1,.86-4.07,12.67,12.67,0,0,1,10.8-8.15,13.06,13.06,0,0,1,14.4,13,2.66,2.66,0,0,0,2.55,2.58,2.61,2.61,0,0,0,2.6-2.23,17.1,17.1,0,0,0-3.67-11.44,18,18,0,0,0-9.78-6.6,17.65,17.65,0,0,0-8.75-.22,17.18,17.18,0,0,0-7.7,3.8,17.45,17.45,0,0,0-6.53,13.2c-.09,4,0,8,0,12,0,1.41-.53,2-1.94,2q-3.36,0-6.72,0c-1.41,0-1.82-.48-1.82-1.92,0-3.55,0-7.09,0-10.63a28.73,28.73,0,0,1,13.59-25.08,27.8,27.8,0,0,1,17.18-4.19,28.62,28.62,0,0,1,9.68,2.34,28.92,28.92,0,0,1,10.86,8.46A28.2,28.2,0,0,1,379,471.63a2.64,2.64,0,0,0,2.77,2.7,2.81,2.81,0,0,0,2.53-3.05c-.16-1.79-.32-3.58-.59-5.36a30.65,30.65,0,0,0-5-12.81,33.59,33.59,0,0,0-25.14-15.23,32.2,32.2,0,0,0-14.17,1.6,34.17,34.17,0,0,0-20.55,19.33,29.9,29.9,0,0,0-2.43,10.65c0,2,0,3.94,0,5.92,0,2.54-.13,5.07-.17,7.61,0,1.45-.47,1.91-1.94,1.91-2.39,0-4.78,0-7.16,0a2,2,0,0,0-2,1,5.21,5.21,0,0,0-.58,2.24c0,10.05-.06,20.11,0,30.16a54.36,54.36,0,0,0,.61,7.2,31.93,31.93,0,0,0,3.73,10.71,44.2,44.2,0,0,0,11.54,13.58,50.16,50.16,0,0,0,16.16,8.67,42.32,42.32,0,0,0,16.81,2.09,49.73,49.73,0,0,0,9.31-1.71,48.48,48.48,0,0,0,16-8c1.6-1.22,3-2.67,4.53-4a33.48,33.48,0,0,0,3.08-3c1.07-1.26,2-2.68,2.9-4a35.79,35.79,0,0,0,2.62-3.81A36.84,36.84,0,0,0,396,518.19C396,512.7,396,507.2,396,501.7ZM383.56,539a43.25,43.25,0,0,1-17.51,13.05A40.35,40.35,0,0,1,348,555.31a44.57,44.57,0,0,1-30.57-15.55,34,34,0,0,1-6.29-11.4,35.12,35.12,0,0,1-1.39-11.2q0-12.4,0-24.83c0-2.15.08-2.23,2.26-2.23h76.69c1.91,0,2.05.15,2.05,2.11q0,13.46,0,26.9A31.09,31.09,0,0,1,383.56,539Z" transform="translate(-304.42 -437.68)"/><path class="cls-1" d="M354.2,501.09a13.58,13.58,0,0,0-9,.32,13.93,13.93,0,0,0-8.91,10.13,14.25,14.25,0,0,0,10.07,17.09,1.62,1.62,0,0,1,1.31,1.83c-.09,1.29,0,2.6,0,3.9s0,2.68,0,4a2.59,2.59,0,1,0,5.18,0c0-2.64.05-5.28,0-7.92,0-1,.54-1.46,1.35-1.82a28.43,28.43,0,0,0,4.25-2,14,14,0,0,0,5.34-16.66A13.87,13.87,0,0,0,354.2,501.09Zm-4.1,23a9.48,9.48,0,0,1-9-9.52c.14-4.42,4.31-9,9.39-8.81,4.71.21,9.12,4.24,8.9,9.18C359.59,519.67,355.09,524.13,350.1,524.06Z" transform="translate(-304.42 -437.68)"/></svg>