<svg id="Слой_1" data-name="Слой 1" xmlns="http://www.w3.org/2000/svg" viewBox="0 0 11.95 11.95"><defs><style>.cls-1{fill:#343434;}</style></defs><path class="cls-1" d="M296.83,417.41a.54.54,0,0,0-.53-.54,2.17,2.17,0,0,0-1.37.73,2.37,2.37,0,0,0-.76,1.4.53.53,0,0,0,.53.53.55.55,0,0,0,.53-.44,1.61,1.61,0,0,1,1.16-1.15A.55.55,0,0,0,296.83,417.41Zm3.81,4.44a4.65,4.65,0,1,0-3.95,2.19,4.56,4.56,0,0,0,2.46-.7l3.05,3.05a1.05,1.05,0,0,0,1.49-1.49Zm-3.95.87A3.32,3.32,0,1,1,300,419.4,3.32,3.32,0,0,1,296.69,422.72Z" transform="translate(-292.05 -414.75)"/></svg>