<svg id="Слой_1" data-name="Слой 1" xmlns="http://www.w3.org/2000/svg" viewBox="0 0 13.73 10.29"><defs><style>.cls-1{fill:#010202;}</style></defs><path class="cls-1" d="M304.88,420.52c-.1-.2-2.51-4.89-6.81-4.89s-6.7,4.69-6.8,4.89a.57.57,0,0,0,0,.51c.1.2,2.5,4.89,6.8,4.89s6.71-4.69,6.81-4.89A.57.57,0,0,0,304.88,420.52Zm-6.81,4.26c-3.07,0-5.1-3.08-5.63-4,.56-.93,2.55-4,5.63-4s5.11,3.08,5.64,4C303.18,421.7,301.14,424.78,298.07,424.78Z" transform="translate(-291.21 -415.63)"/><path class="cls-1" d="M298.07,418.48a2.29,2.29,0,1,0,0,4.58h0a2.28,2.28,0,0,0,2.28-2.28h0A2.3,2.3,0,0,0,298.07,418.48Zm0,3.45a1.15,1.15,0,1,1,0-2.3,1.15,1.15,0,1,1,0,2.3Z" transform="translate(-291.21 -415.63)"/></svg>