<svg id="Слой_1" data-name="Слой 1" xmlns="http://www.w3.org/2000/svg" viewBox="0 0 13.97 13.99"><defs><style>.cls-1{fill:#010202;}</style></defs><path class="cls-1" d="M296.31,416.35a.58.58,0,0,0,.66.49h0a4.82,4.82,0,0,1,1.07-.13c3.12,0,5.18,3.13,5.73,4.06a9.37,9.37,0,0,1-1,1.48.58.58,0,0,0,.06.82h0a.57.57,0,0,0,.82-.07A11.32,11.32,0,0,0,305,421a.64.64,0,0,0,0-.54c-.1-.2-2.53-5-6.9-5a5.17,5.17,0,0,0-1.36.16.58.58,0,0,0-.44.68Z" transform="translate(-291.09 -413.78)"/><path class="cls-1" d="M304.86,426.74,292.09,414a.58.58,0,0,0-.84.8l0,0,2.49,2.49a11.3,11.3,0,0,0-2.59,3.21.55.55,0,0,0,0,.53c.1.21,2.53,5,6.91,5a6.35,6.35,0,0,0,3.38-1l2.59,2.59a.59.59,0,0,0,.86-.8Zm-7.94-6.3,1.46,1.47a1.8,1.8,0,0,1-.32.06,1.15,1.15,0,0,1-1.2-1.12A1,1,0,0,1,296.92,420.44Zm1.14,4.39c-3.11,0-5.17-3.13-5.72-4.06a10.24,10.24,0,0,1,2.24-2.67l1.48,1.48a2.3,2.3,0,0,0,.71,3.19,2.25,2.25,0,0,0,1.29.36h.08a2.39,2.39,0,0,0,1.15-.36l1.35,1.35A5.24,5.24,0,0,1,298.06,424.83Z" transform="translate(-291.09 -413.78)"/></svg>