<svg id="Слой_1" data-name="Слой 1" xmlns="http://www.w3.org/2000/svg" viewBox="0 0 18.81 18.76"><defs><style>.cls-1{fill:#e41d1f;}</style></defs><path class="cls-1" d="M341.84,503.16a3.09,3.09,0,0,0,.37.43c1.25,1.27,2.49,2.53,3.75,3.79a3.78,3.78,0,0,0,3.32,1.14,3.63,3.63,0,0,0,2.1-1c1.41-1.4,2.82-2.78,4.18-4.22a22,22,0,0,0,3.74-5.41,4.1,4.1,0,0,0,.55-2.17,3.81,3.81,0,0,0-1.15-2.64c-.69-.7-1.38-1.4-2.08-2.08a3.83,3.83,0,0,0-3.27-1.15,4,4,0,0,0-1.27.38,23.52,23.52,0,0,0-6.84,4.85c-1,1-2,2-3,3A3.83,3.83,0,0,0,341.84,503.16Zm1.29-3.89c.87-.9,1.78-1.76,2.67-2.64a28.76,28.76,0,0,1,3.08-2.76,20.1,20.1,0,0,1,4-2.34,2.4,2.4,0,0,1,2.73.53c.68.69,1.36,1.37,2,2.06a2.85,2.85,0,0,1,.46.65A2.4,2.4,0,0,1,358,497a20.67,20.67,0,0,1-3.28,4.88c-1.46,1.56-3,3.05-4.52,4.56a1.9,1.9,0,0,1-1.3.56,2.45,2.45,0,0,1-1.91-.74l-3.46-3.49c-.16-.16-.32-.32-.47-.49A2.27,2.27,0,0,1,343.13,499.27Z" transform="translate(-341.04 -489.8)"/><path class="cls-1" d="M354.47,493.67a1.47,1.47,0,1,1-1.46,1.47A1.45,1.45,0,0,1,354.47,493.67Z" transform="translate(-341.04 -489.8)"/></svg>