<svg id="Слой_1" data-name="Слой 1" xmlns="http://www.w3.org/2000/svg" viewBox="0 0 12.02 12.02"><defs><style>.cls-1{fill:#fff;}</style></defs><path class="cls-1" d="M295.07,425.78h6v-3h-6Zm7,0h1v-7a.74.74,0,0,0-.08-.3.8.8,0,0,0-.15-.27l-2.2-2.2a.8.8,0,0,0-.27-.15.67.67,0,0,0-.3-.08V419a.77.77,0,0,1-.22.54.74.74,0,0,1-.53.21h-4.51a.72.72,0,0,1-.53-.21.73.73,0,0,1-.22-.54v-3.25h-1v10h1v-3.25a.75.75,0,0,1,.75-.75h6.51a.75.75,0,0,1,.75.75Zm-3-7.26V416a.25.25,0,0,0-.08-.18.23.23,0,0,0-.17-.07h-1.51a.23.23,0,0,0-.17.07.25.25,0,0,0-.08.18v2.5a.25.25,0,0,0,.08.18.23.23,0,0,0,.17.07h1.51a.23.23,0,0,0,.17-.07A.25.25,0,0,0,299.08,418.52Zm5,.25V426a.73.73,0,0,1-.22.54.72.72,0,0,1-.53.21H292.82a.72.72,0,0,1-.75-.75V415.52a.72.72,0,0,1,.21-.53.73.73,0,0,1,.54-.22h7.26a2,2,0,0,1,1.28.53l2.19,2.19a1.88,1.88,0,0,1,.38.59A1.91,1.91,0,0,1,304.08,418.77Z" transform="translate(-292.07 -414.77)"/></svg>