<svg id="Слой_1" data-name="Слой 1" xmlns="http://www.w3.org/2000/svg" viewBox="0 0 85.24 75.63"><defs><style>.cls-1{fill:#cf1417;}.cls-2{fill:#fff;}</style></defs><path class="cls-1" d="M391.7,484.83l-38.93-22.75a5.45,5.45,0,0,0-5,0l-38.92,22.75a4.33,4.33,0,0,0-1.22,2.34v47.1a2.83,2.83,0,0,0,2.83,2.83H390a2.84,2.84,0,0,0,2.84-2.83v-47.1A4.19,4.19,0,0,0,391.7,484.83Z" transform="translate(-307.63 -461.48)"/><g id="_05" data-name=" 05"><path class="cls-2" d="M332.26,492.5v27h36v-27Zm33,24h-30v-21h30Z" transform="translate(-307.63 -461.48)"/><polygon class="cls-2" points="54.61 43.44 54.61 40.37 42.64 42.97 30.63 40.16 30.63 43.23 42.61 46.06 54.61 43.44"/></g></svg>