<svg id="Слой_1" data-name="Слой 1" xmlns="http://www.w3.org/2000/svg" viewBox="0 0 15.1 15.09"><defs><style>.cls-1{fill:#e41315;}</style></defs><path class="cls-1" d="M356.16,491.64h-4.08a3.76,3.76,0,0,0-2.4,1L343.29,499a1.7,1.7,0,0,0,0,2.43l4.77,4.77a1.72,1.72,0,0,0,1.22.5,1.71,1.71,0,0,0,1.22-.5l6.38-6.38a3.8,3.8,0,0,0,1-2.4v-4.09A1.74,1.74,0,0,0,356.16,491.64Zm.61,5.77a2.72,2.72,0,0,1-.68,1.65l-6.38,6.38a.62.62,0,0,1-.89,0l-4.77-4.77a.62.62,0,0,1,0-.89l6.38-6.38a2.82,2.82,0,0,1,1.65-.68v0h4.05a.64.64,0,0,1,.64.65Z" transform="translate(-342.78 -491.64)"/><path class="cls-1" d="M353.58,493.83a2.12,2.12,0,1,0,2.12,2.11A2.12,2.12,0,0,0,353.58,493.83Zm0,3.22a1.11,1.11,0,1,1,1.11-1.11A1.11,1.11,0,0,1,353.58,497.05Z" transform="translate(-342.78 -491.64)"/></svg>