<svg id="Слой_1" data-name="Слой 1" xmlns="http://www.w3.org/2000/svg" viewBox="0 0 23.98 23.97"><defs><style>.cls-1{fill:#e41315;}</style></defs><path class="cls-1" d="M306.57,412.31a11.94,11.94,0,0,0-8.48-3.52h0a12,12,0,0,0,0,24h0a12,12,0,0,0,8.5-20.45Zm1.83,8.58c0,5.83-4.81,10.21-11.08,10.21h0a9.89,9.89,0,0,1-6.53-3,10.51,10.51,0,0,1-2.91-5.53,10.36,10.36,0,0,1,2.92-9.07,10,10,0,0,1,7.43-3A10.33,10.33,0,0,1,308.4,420.89Z" transform="translate(-286.08 -408.79)"/><path class="cls-1" d="M304.32,424.76a7.45,7.45,0,0,0-1.53-1.65,7.13,7.13,0,0,0-1.62-1l-.13-.06a4.83,4.83,0,0,0,1.86-3.12,4.73,4.73,0,0,0-1.21-4.11,4.89,4.89,0,0,0-3.5-1.64,5,5,0,0,0-3.64,1.43,4.7,4.7,0,0,0-1.47,3.33,4.82,4.82,0,0,0,1.93,4.11h0a8.62,8.62,0,0,0-1.81,1.12,7.7,7.7,0,0,0-2.26,3.15.8.8,0,0,0,.28,1,.77.77,0,0,0,.67.15.89.89,0,0,0,.59-.54,10.15,10.15,0,0,1,.45-.94,5.8,5.8,0,0,1,3.17-2.61,6.28,6.28,0,0,1,1-.26,4.55,4.55,0,0,1,1.39-.06l.27,0c.23,0,.46.06.68.11a6,6,0,0,1,3.36,2.21,6.15,6.15,0,0,1,.93,1.82.77.77,0,0,0,.4.48.81.81,0,0,0,.65,0,.83.83,0,0,0,.52-1A7.73,7.73,0,0,0,304.32,424.76Zm-3-6.61a3.24,3.24,0,0,1-1,2.32,3.29,3.29,0,1,1-2.31-5.62h0a3.28,3.28,0,0,1,3.28,3.3Zm-9.23,8.76Z" transform="translate(-286.08 -408.79)"/></svg>