<svg id="Слой_1" data-name="Слой 1" xmlns="http://www.w3.org/2000/svg" viewBox="0 0 47.65 55.01"><defs><style>.cls-1{fill:#e31013;}</style></defs><path class="cls-1" d="M361.3,500.84a12.83,12.83,0,0,1,2.28,25.46,12.45,12.45,0,0,1-11-3.28,12.21,12.21,0,0,1-4.06-9.38A12.85,12.85,0,0,1,361.3,500.84Zm.05,1.81a11,11,0,0,0-11.09,10.93,10.67,10.67,0,0,0,3.1,7.78,11,11,0,1,0,8-18.71Z" transform="translate(-326.47 -471.5)"/><path d="M328.17,513.71h17.37a.94.94,0,0,1,1,.64c.17.56-.18,1.17-1.07,1.17H328.29c-.36,0-.72,0-1.08,0a.88.88,0,0,1-.72-1.05,3.2,3.2,0,0,0,0-.44,16.52,16.52,0,0,1,1.16-6.85,18.23,18.23,0,0,1,16.51-11.76,18.45,18.45,0,0,1,4,.29,18.12,18.12,0,0,1,7.38,3.2,3.56,3.56,0,0,1,.66.56.83.83,0,0,1-.15,1.14.89.89,0,0,1-1.14,0,17.14,17.14,0,0,0-3.73-2.17,13.75,13.75,0,0,0-3.87-1.07,24.55,24.55,0,0,0-3.83-.16,16.17,16.17,0,0,0-9.67,4.09,16.44,16.44,0,0,0-4.38,6.17,14.36,14.36,0,0,0-1,3.71C328.34,512,328.26,512.82,328.17,513.71Z" transform="translate(-326.47 -471.5)"/><path d="M353.9,482.47c0,.7,0,1.4,0,2.1a8.82,8.82,0,0,1-4,7.32,8.68,8.68,0,0,1-4.71,1.55,9,9,0,0,1-7.17-3,8.7,8.7,0,0,1-2.17-4.25,15,15,0,0,1-.21-2.22c0-1,0-2,0-3a9.66,9.66,0,0,1,1.06-4.57,9.22,9.22,0,0,1,3.59-3.71,9.16,9.16,0,0,1,13.49,6.14,8.72,8.72,0,0,1,.15,1.53C353.92,481.08,353.9,481.78,353.9,482.47Zm-1.81,0h0c0-.69,0-1.39,0-2.09a9,9,0,0,0-.3-2,7.39,7.39,0,0,0-12.92-2.2,7.45,7.45,0,0,0-1.5,4.66c0,1.27,0,2.54.05,3.81a6.65,6.65,0,0,0,1.18,3.69,7.37,7.37,0,0,0,11,1.49,6.87,6.87,0,0,0,2.42-4.67C352.15,484.3,352.09,483.4,352.09,482.5Z" transform="translate(-326.47 -471.5)"/><path class="cls-1" d="M360.42,514.55h-3.76a.89.89,0,0,1-.84-.84.87.87,0,0,1,.79-.88c1.13,0,2.25,0,3.38,0,.34,0,.44-.09.44-.43,0-1.1,0-2.2,0-3.31a.86.86,0,0,1,.88-.86.89.89,0,0,1,.85.91c0,1.11,0,2.22,0,3.34,0,.27.08.36.35.35,1.13,0,2.25,0,3.38,0a.87.87,0,1,1,0,1.73h-3.34c-.27,0-.36.08-.36.35,0,1.12,0,2.23,0,3.34a.87.87,0,1,1-1.74,0c0-1.08,0-2.16,0-3.23Z" transform="translate(-326.47 -471.5)"/></svg>