<svg id="Слой_1" data-name="Слой 1" xmlns="http://www.w3.org/2000/svg" viewBox="0 0 54.14 54.12"><defs><style>.cls-1{fill:#fff;}</style></defs><path class="cls-1" d="M298.09,393.71a27.06,27.06,0,1,0,27,27.11A27.08,27.08,0,0,0,298.09,393.71Zm-1.85,52c-5,0-10.93-2.51-15.78-7.27a25.21,25.21,0,0,1-7-13.39c-1.1-8.38,1-15.77,7-21.82a24.06,24.06,0,0,1,17.9-7.29A24.86,24.86,0,0,1,323,421C322.84,434.47,311.82,445.68,296.24,445.66Z" transform="translate(-270.98 -393.71)"/><path class="cls-1" d="M311.89,430.52a16.32,16.32,0,0,0-3.38-3.66,15.63,15.63,0,0,0-3.58-2.19L303.2,424a10.64,10.64,0,0,0,5.27-7.59,10.24,10.24,0,0,0-2.61-8.86,10.59,10.59,0,0,0-15.4-.47,10.1,10.1,0,0,0-3.18,7.18,10.63,10.63,0,0,0,5.43,9.77c-.53.2-1,.36-1.49.58a17.87,17.87,0,0,0-4,2.49,17,17,0,0,0-5,7,1,1,0,0,0,.39,1.43,1,1,0,0,0,1.55-.41c.36-.83.73-1.66,1.16-2.45a14.66,14.66,0,0,1,7.86-6.47,16.54,16.54,0,0,1,2.49-.64,11.6,11.6,0,0,1,3.48-.13,21.8,21.8,0,0,1,2.29.35,14.53,14.53,0,0,1,8.32,5.46,15.29,15.29,0,0,1,2.28,4.48,1,1,0,0,0,1.35.68A1.09,1.09,0,0,0,314,435,16.79,16.79,0,0,0,311.89,430.52Zm-14.1-7.38a8.51,8.51,0,1,1,8.65-8.49A8.49,8.49,0,0,1,297.79,423.14Z" transform="translate(-270.98 -393.71)"/></svg>